<mxfile host="app.diagrams.net" modified="2024-03-03T00:50:50.821Z" agent="Mozilla/5.0 (Windows NT 10.0; Win64; x64) AppleWebKit/537.36 (KHTML, like Gecko) Chrome/122.0.0.0 Safari/537.36 Edg/122.0.0.0" etag="Z-9hv5vfVUujkXjsdPt4" version="24.0.1" type="github">
  <diagram name="Página-1" id="CgFU_p9SZ6jP6wdM2lDk">
    <mxGraphModel dx="4085" dy="933" grid="1" gridSize="10" guides="1" tooltips="1" connect="1" arrows="1" fold="1" page="1" pageScale="1" pageWidth="1654" pageHeight="2336" math="0" shadow="0">
      <root>
        <mxCell id="0" />
        <mxCell id="1" parent="0" />
        <mxCell id="tQDxqaG2RxFXSUezw98f-5" style="edgeStyle=orthogonalEdgeStyle;rounded=0;orthogonalLoop=1;jettySize=auto;html=1;exitX=0.25;exitY=1;exitDx=0;exitDy=0;entryX=0.5;entryY=0;entryDx=0;entryDy=0;" edge="1" parent="1" source="tQDxqaG2RxFXSUezw98f-1" target="tQDxqaG2RxFXSUezw98f-2">
          <mxGeometry relative="1" as="geometry" />
        </mxCell>
        <mxCell id="tQDxqaG2RxFXSUezw98f-9" style="edgeStyle=orthogonalEdgeStyle;rounded=0;orthogonalLoop=1;jettySize=auto;html=1;exitX=0.75;exitY=1;exitDx=0;exitDy=0;entryX=0.5;entryY=0;entryDx=0;entryDy=0;" edge="1" parent="1" source="tQDxqaG2RxFXSUezw98f-1" target="tQDxqaG2RxFXSUezw98f-7">
          <mxGeometry relative="1" as="geometry" />
        </mxCell>
        <mxCell id="tQDxqaG2RxFXSUezw98f-54" style="edgeStyle=orthogonalEdgeStyle;rounded=0;orthogonalLoop=1;jettySize=auto;html=1;exitX=0;exitY=0.5;exitDx=0;exitDy=0;entryX=1;entryY=0.5;entryDx=0;entryDy=0;" edge="1" parent="1" source="tQDxqaG2RxFXSUezw98f-1" target="tQDxqaG2RxFXSUezw98f-52">
          <mxGeometry relative="1" as="geometry" />
        </mxCell>
        <mxCell id="tQDxqaG2RxFXSUezw98f-1" value="Avião" style="rounded=0;whiteSpace=wrap;html=1;" vertex="1" parent="1">
          <mxGeometry x="180" y="380" width="120" height="60" as="geometry" />
        </mxCell>
        <mxCell id="tQDxqaG2RxFXSUezw98f-2" value="&lt;u&gt;Número registro&lt;/u&gt;" style="ellipse;whiteSpace=wrap;html=1;" vertex="1" parent="1">
          <mxGeometry x="70" y="560" width="120" height="80" as="geometry" />
        </mxCell>
        <mxCell id="tQDxqaG2RxFXSUezw98f-8" value="" style="group" vertex="1" connectable="0" parent="1">
          <mxGeometry x="250" y="550" width="140" height="100" as="geometry" />
        </mxCell>
        <mxCell id="tQDxqaG2RxFXSUezw98f-7" value="" style="ellipse;whiteSpace=wrap;html=1;" vertex="1" parent="tQDxqaG2RxFXSUezw98f-8">
          <mxGeometry width="140" height="100" as="geometry" />
        </mxCell>
        <mxCell id="tQDxqaG2RxFXSUezw98f-3" value="Modelo" style="ellipse;whiteSpace=wrap;html=1;" vertex="1" parent="tQDxqaG2RxFXSUezw98f-8">
          <mxGeometry x="10" y="10" width="120" height="80" as="geometry" />
        </mxCell>
        <mxCell id="tQDxqaG2RxFXSUezw98f-10" value="Capacidade pessoas" style="ellipse;whiteSpace=wrap;html=1;" vertex="1" parent="1">
          <mxGeometry x="120" y="740" width="120" height="80" as="geometry" />
        </mxCell>
        <mxCell id="tQDxqaG2RxFXSUezw98f-11" value="Peso" style="ellipse;whiteSpace=wrap;html=1;" vertex="1" parent="1">
          <mxGeometry x="260" y="740" width="120" height="80" as="geometry" />
        </mxCell>
        <mxCell id="tQDxqaG2RxFXSUezw98f-12" value="&lt;u&gt;Código&lt;/u&gt;" style="ellipse;whiteSpace=wrap;html=1;" vertex="1" parent="1">
          <mxGeometry x="400" y="740" width="120" height="80" as="geometry" />
        </mxCell>
        <mxCell id="tQDxqaG2RxFXSUezw98f-13" style="edgeStyle=orthogonalEdgeStyle;rounded=0;orthogonalLoop=1;jettySize=auto;html=1;exitX=0.5;exitY=1;exitDx=0;exitDy=0;entryX=0.5;entryY=0;entryDx=0;entryDy=0;" edge="1" parent="1" source="tQDxqaG2RxFXSUezw98f-7" target="tQDxqaG2RxFXSUezw98f-11">
          <mxGeometry relative="1" as="geometry" />
        </mxCell>
        <mxCell id="tQDxqaG2RxFXSUezw98f-14" style="edgeStyle=orthogonalEdgeStyle;rounded=0;orthogonalLoop=1;jettySize=auto;html=1;exitX=1;exitY=1;exitDx=0;exitDy=0;entryX=0.5;entryY=0;entryDx=0;entryDy=0;" edge="1" parent="1" source="tQDxqaG2RxFXSUezw98f-7" target="tQDxqaG2RxFXSUezw98f-12">
          <mxGeometry relative="1" as="geometry" />
        </mxCell>
        <mxCell id="tQDxqaG2RxFXSUezw98f-15" style="edgeStyle=orthogonalEdgeStyle;rounded=0;orthogonalLoop=1;jettySize=auto;html=1;exitX=0;exitY=1;exitDx=0;exitDy=0;entryX=0.5;entryY=0;entryDx=0;entryDy=0;" edge="1" parent="1" source="tQDxqaG2RxFXSUezw98f-7" target="tQDxqaG2RxFXSUezw98f-10">
          <mxGeometry relative="1" as="geometry" />
        </mxCell>
        <mxCell id="tQDxqaG2RxFXSUezw98f-30" style="edgeStyle=orthogonalEdgeStyle;rounded=0;orthogonalLoop=1;jettySize=auto;html=1;exitX=1;exitY=0.5;exitDx=0;exitDy=0;entryX=0;entryY=0.5;entryDx=0;entryDy=0;" edge="1" parent="1" source="tQDxqaG2RxFXSUezw98f-33" target="tQDxqaG2RxFXSUezw98f-29">
          <mxGeometry relative="1" as="geometry" />
        </mxCell>
        <mxCell id="tQDxqaG2RxFXSUezw98f-45" style="edgeStyle=orthogonalEdgeStyle;rounded=0;orthogonalLoop=1;jettySize=auto;html=1;exitX=0;exitY=0.5;exitDx=0;exitDy=0;entryX=1;entryY=0.5;entryDx=0;entryDy=0;" edge="1" parent="1" source="tQDxqaG2RxFXSUezw98f-16" target="tQDxqaG2RxFXSUezw98f-41">
          <mxGeometry relative="1" as="geometry" />
        </mxCell>
        <mxCell id="tQDxqaG2RxFXSUezw98f-71" style="edgeStyle=orthogonalEdgeStyle;rounded=0;orthogonalLoop=1;jettySize=auto;html=1;exitX=0.5;exitY=0;exitDx=0;exitDy=0;entryX=0.5;entryY=0;entryDx=0;entryDy=0;" edge="1" parent="1" source="tQDxqaG2RxFXSUezw98f-16" target="tQDxqaG2RxFXSUezw98f-52">
          <mxGeometry relative="1" as="geometry" />
        </mxCell>
        <mxCell id="tQDxqaG2RxFXSUezw98f-16" value="Técnico" style="rounded=0;whiteSpace=wrap;html=1;" vertex="1" parent="1">
          <mxGeometry x="470" y="200" width="120" height="60" as="geometry" />
        </mxCell>
        <mxCell id="tQDxqaG2RxFXSUezw98f-17" value="&lt;u&gt;Registro&lt;/u&gt;" style="ellipse;whiteSpace=wrap;html=1;" vertex="1" parent="1">
          <mxGeometry x="880" y="190" width="120" height="80" as="geometry" />
        </mxCell>
        <mxCell id="tQDxqaG2RxFXSUezw98f-18" value="Endereço" style="ellipse;whiteSpace=wrap;html=1;" vertex="1" parent="1">
          <mxGeometry x="880" y="280" width="120" height="80" as="geometry" />
        </mxCell>
        <mxCell id="tQDxqaG2RxFXSUezw98f-19" value="Telefone" style="ellipse;whiteSpace=wrap;html=1;" vertex="1" parent="1">
          <mxGeometry x="880" y="370" width="120" height="80" as="geometry" />
        </mxCell>
        <mxCell id="tQDxqaG2RxFXSUezw98f-20" value="Salário" style="ellipse;whiteSpace=wrap;html=1;" vertex="1" parent="1">
          <mxGeometry x="880" y="460" width="120" height="80" as="geometry" />
        </mxCell>
        <mxCell id="tQDxqaG2RxFXSUezw98f-29" value="Data último exame" style="ellipse;whiteSpace=wrap;html=1;align=center;dashed=1;" vertex="1" parent="1">
          <mxGeometry x="880" y="560" width="120" height="80" as="geometry" />
        </mxCell>
        <mxCell id="tQDxqaG2RxFXSUezw98f-32" style="edgeStyle=orthogonalEdgeStyle;rounded=0;orthogonalLoop=1;jettySize=auto;html=1;exitX=0.5;exitY=0;exitDx=0;exitDy=0;entryX=0.5;entryY=1;entryDx=0;entryDy=0;" edge="1" parent="1" source="tQDxqaG2RxFXSUezw98f-31" target="tQDxqaG2RxFXSUezw98f-16">
          <mxGeometry relative="1" as="geometry" />
        </mxCell>
        <mxCell id="tQDxqaG2RxFXSUezw98f-34" style="edgeStyle=orthogonalEdgeStyle;rounded=0;orthogonalLoop=1;jettySize=auto;html=1;exitX=1;exitY=1;exitDx=0;exitDy=0;entryX=0;entryY=0.5;entryDx=0;entryDy=0;" edge="1" parent="1" source="tQDxqaG2RxFXSUezw98f-31" target="tQDxqaG2RxFXSUezw98f-20">
          <mxGeometry relative="1" as="geometry">
            <Array as="points">
              <mxPoint x="770" y="400" />
              <mxPoint x="770" y="440" />
              <mxPoint x="860" y="440" />
              <mxPoint x="860" y="500" />
            </Array>
          </mxGeometry>
        </mxCell>
        <mxCell id="tQDxqaG2RxFXSUezw98f-35" style="edgeStyle=orthogonalEdgeStyle;rounded=0;orthogonalLoop=1;jettySize=auto;html=1;exitX=1;exitY=0.75;exitDx=0;exitDy=0;entryX=0;entryY=0.5;entryDx=0;entryDy=0;" edge="1" parent="1" source="tQDxqaG2RxFXSUezw98f-31" target="tQDxqaG2RxFXSUezw98f-19">
          <mxGeometry relative="1" as="geometry" />
        </mxCell>
        <mxCell id="tQDxqaG2RxFXSUezw98f-36" style="edgeStyle=orthogonalEdgeStyle;rounded=0;orthogonalLoop=1;jettySize=auto;html=1;exitX=1;exitY=0.5;exitDx=0;exitDy=0;entryX=0;entryY=0.5;entryDx=0;entryDy=0;" edge="1" parent="1" source="tQDxqaG2RxFXSUezw98f-31" target="tQDxqaG2RxFXSUezw98f-18">
          <mxGeometry relative="1" as="geometry" />
        </mxCell>
        <mxCell id="tQDxqaG2RxFXSUezw98f-37" style="edgeStyle=orthogonalEdgeStyle;rounded=0;orthogonalLoop=1;jettySize=auto;html=1;exitX=1;exitY=0.25;exitDx=0;exitDy=0;entryX=0;entryY=0.5;entryDx=0;entryDy=0;" edge="1" parent="1" source="tQDxqaG2RxFXSUezw98f-31" target="tQDxqaG2RxFXSUezw98f-17">
          <mxGeometry relative="1" as="geometry">
            <Array as="points">
              <mxPoint x="770" y="355" />
              <mxPoint x="770" y="290" />
              <mxPoint x="860" y="290" />
              <mxPoint x="860" y="230" />
            </Array>
          </mxGeometry>
        </mxCell>
        <mxCell id="tQDxqaG2RxFXSUezw98f-40" style="edgeStyle=orthogonalEdgeStyle;rounded=0;orthogonalLoop=1;jettySize=auto;html=1;exitX=0.75;exitY=1;exitDx=0;exitDy=0;entryX=0.5;entryY=0;entryDx=0;entryDy=0;" edge="1" parent="1" source="tQDxqaG2RxFXSUezw98f-31" target="tQDxqaG2RxFXSUezw98f-33">
          <mxGeometry relative="1" as="geometry">
            <Array as="points">
              <mxPoint x="670" y="420" />
              <mxPoint x="730" y="420" />
            </Array>
          </mxGeometry>
        </mxCell>
        <mxCell id="tQDxqaG2RxFXSUezw98f-47" style="edgeStyle=orthogonalEdgeStyle;rounded=0;orthogonalLoop=1;jettySize=auto;html=1;exitX=0.5;exitY=1;exitDx=0;exitDy=0;entryX=0.5;entryY=0;entryDx=0;entryDy=0;" edge="1" parent="1" source="tQDxqaG2RxFXSUezw98f-31" target="tQDxqaG2RxFXSUezw98f-46">
          <mxGeometry relative="1" as="geometry" />
        </mxCell>
        <mxCell id="tQDxqaG2RxFXSUezw98f-31" value="Empregados" style="shape=ext;margin=3;double=1;whiteSpace=wrap;html=1;align=center;" vertex="1" parent="1">
          <mxGeometry x="580" y="340" width="120" height="60" as="geometry" />
        </mxCell>
        <mxCell id="tQDxqaG2RxFXSUezw98f-33" value="Controlador aéreo" style="whiteSpace=wrap;html=1;align=center;" vertex="1" parent="1">
          <mxGeometry x="670" y="570" width="120" height="60" as="geometry" />
        </mxCell>
        <mxCell id="tQDxqaG2RxFXSUezw98f-44" style="edgeStyle=orthogonalEdgeStyle;rounded=0;orthogonalLoop=1;jettySize=auto;html=1;exitX=0.5;exitY=1;exitDx=0;exitDy=0;entryX=0.5;entryY=0;entryDx=0;entryDy=0;" edge="1" parent="1" source="tQDxqaG2RxFXSUezw98f-41" target="tQDxqaG2RxFXSUezw98f-1">
          <mxGeometry relative="1" as="geometry" />
        </mxCell>
        <mxCell id="tQDxqaG2RxFXSUezw98f-41" value="Perito" style="shape=rhombus;perimeter=rhombusPerimeter;whiteSpace=wrap;html=1;align=center;" vertex="1" parent="1">
          <mxGeometry x="180" y="200" width="120" height="60" as="geometry" />
        </mxCell>
        <mxCell id="tQDxqaG2RxFXSUezw98f-49" style="edgeStyle=orthogonalEdgeStyle;rounded=0;orthogonalLoop=1;jettySize=auto;html=1;exitX=1;exitY=0.5;exitDx=0;exitDy=0;entryX=0;entryY=0.5;entryDx=0;entryDy=0;" edge="1" parent="1" source="tQDxqaG2RxFXSUezw98f-46" target="tQDxqaG2RxFXSUezw98f-48">
          <mxGeometry relative="1" as="geometry" />
        </mxCell>
        <mxCell id="tQDxqaG2RxFXSUezw98f-46" value="Associado" style="shape=rhombus;perimeter=rhombusPerimeter;whiteSpace=wrap;html=1;align=center;" vertex="1" parent="1">
          <mxGeometry x="560" y="670" width="120" height="60" as="geometry" />
        </mxCell>
        <mxCell id="tQDxqaG2RxFXSUezw98f-51" style="edgeStyle=orthogonalEdgeStyle;rounded=0;orthogonalLoop=1;jettySize=auto;html=1;exitX=1;exitY=0.5;exitDx=0;exitDy=0;entryX=0;entryY=0.5;entryDx=0;entryDy=0;" edge="1" parent="1" source="tQDxqaG2RxFXSUezw98f-48" target="tQDxqaG2RxFXSUezw98f-50">
          <mxGeometry relative="1" as="geometry" />
        </mxCell>
        <mxCell id="tQDxqaG2RxFXSUezw98f-48" value="Sindicato" style="whiteSpace=wrap;html=1;align=center;" vertex="1" parent="1">
          <mxGeometry x="730" y="670" width="120" height="60" as="geometry" />
        </mxCell>
        <mxCell id="tQDxqaG2RxFXSUezw98f-50" value="Registro membro" style="ellipse;whiteSpace=wrap;html=1;align=center;fontStyle=4;" vertex="1" parent="1">
          <mxGeometry x="920" y="660" width="120" height="80" as="geometry" />
        </mxCell>
        <mxCell id="tQDxqaG2RxFXSUezw98f-55" style="edgeStyle=orthogonalEdgeStyle;rounded=0;orthogonalLoop=1;jettySize=auto;html=1;exitX=0;exitY=0.5;exitDx=0;exitDy=0;entryX=1;entryY=0.5;entryDx=0;entryDy=0;" edge="1" parent="1" source="tQDxqaG2RxFXSUezw98f-52" target="tQDxqaG2RxFXSUezw98f-53">
          <mxGeometry relative="1" as="geometry" />
        </mxCell>
        <mxCell id="tQDxqaG2RxFXSUezw98f-52" value="Testar" style="shape=rhombus;perimeter=rhombusPerimeter;whiteSpace=wrap;html=1;align=center;" vertex="1" parent="1">
          <mxGeometry x="-80" y="380" width="120" height="60" as="geometry" />
        </mxCell>
        <mxCell id="tQDxqaG2RxFXSUezw98f-58" style="edgeStyle=orthogonalEdgeStyle;rounded=0;orthogonalLoop=1;jettySize=auto;html=1;exitX=0.5;exitY=1;exitDx=0;exitDy=0;entryX=0.5;entryY=0;entryDx=0;entryDy=0;" edge="1" parent="1" source="tQDxqaG2RxFXSUezw98f-53" target="tQDxqaG2RxFXSUezw98f-57">
          <mxGeometry relative="1" as="geometry" />
        </mxCell>
        <mxCell id="tQDxqaG2RxFXSUezw98f-85" style="edgeStyle=orthogonalEdgeStyle;rounded=0;orthogonalLoop=1;jettySize=auto;html=1;exitX=0;exitY=0.5;exitDx=0;exitDy=0;entryX=1;entryY=0.5;entryDx=0;entryDy=0;" edge="1" parent="1" source="tQDxqaG2RxFXSUezw98f-53" target="tQDxqaG2RxFXSUezw98f-84">
          <mxGeometry relative="1" as="geometry" />
        </mxCell>
        <mxCell id="tQDxqaG2RxFXSUezw98f-53" value="Teste" style="whiteSpace=wrap;html=1;align=center;" vertex="1" parent="1">
          <mxGeometry x="-290" y="380" width="120" height="60" as="geometry" />
        </mxCell>
        <mxCell id="tQDxqaG2RxFXSUezw98f-67" style="edgeStyle=orthogonalEdgeStyle;rounded=0;orthogonalLoop=1;jettySize=auto;html=1;exitX=0;exitY=0;exitDx=0;exitDy=0;entryX=1;entryY=0.5;entryDx=0;entryDy=0;" edge="1" parent="1" source="tQDxqaG2RxFXSUezw98f-57" target="tQDxqaG2RxFXSUezw98f-63">
          <mxGeometry relative="1" as="geometry">
            <Array as="points">
              <mxPoint x="-272" y="540" />
            </Array>
          </mxGeometry>
        </mxCell>
        <mxCell id="tQDxqaG2RxFXSUezw98f-68" style="edgeStyle=orthogonalEdgeStyle;rounded=0;orthogonalLoop=1;jettySize=auto;html=1;exitX=0;exitY=0.5;exitDx=0;exitDy=0;entryX=1;entryY=0.5;entryDx=0;entryDy=0;" edge="1" parent="1" source="tQDxqaG2RxFXSUezw98f-57" target="tQDxqaG2RxFXSUezw98f-66">
          <mxGeometry relative="1" as="geometry">
            <Array as="points">
              <mxPoint x="-280" y="680" />
              <mxPoint x="-280" y="660" />
              <mxPoint x="-335" y="660" />
              <mxPoint x="-335" y="630" />
            </Array>
          </mxGeometry>
        </mxCell>
        <mxCell id="tQDxqaG2RxFXSUezw98f-69" style="edgeStyle=orthogonalEdgeStyle;rounded=0;orthogonalLoop=1;jettySize=auto;html=1;exitX=0;exitY=0.5;exitDx=0;exitDy=0;entryX=1;entryY=0.5;entryDx=0;entryDy=0;" edge="1" parent="1" source="tQDxqaG2RxFXSUezw98f-57" target="tQDxqaG2RxFXSUezw98f-65">
          <mxGeometry relative="1" as="geometry">
            <Array as="points">
              <mxPoint x="-280" y="680" />
              <mxPoint x="-280" y="700" />
              <mxPoint x="-335" y="700" />
              <mxPoint x="-335" y="720" />
            </Array>
          </mxGeometry>
        </mxCell>
        <mxCell id="tQDxqaG2RxFXSUezw98f-70" style="edgeStyle=orthogonalEdgeStyle;rounded=0;orthogonalLoop=1;jettySize=auto;html=1;exitX=0;exitY=1;exitDx=0;exitDy=0;entryX=1;entryY=0.5;entryDx=0;entryDy=0;" edge="1" parent="1" source="tQDxqaG2RxFXSUezw98f-57" target="tQDxqaG2RxFXSUezw98f-64">
          <mxGeometry relative="1" as="geometry">
            <Array as="points">
              <mxPoint x="-272" y="780" />
              <mxPoint x="-335" y="780" />
              <mxPoint x="-335" y="810" />
            </Array>
          </mxGeometry>
        </mxCell>
        <mxCell id="tQDxqaG2RxFXSUezw98f-81" style="edgeStyle=orthogonalEdgeStyle;rounded=0;orthogonalLoop=1;jettySize=auto;html=1;exitX=0.5;exitY=1;exitDx=0;exitDy=0;entryX=0.5;entryY=0;entryDx=0;entryDy=0;" edge="1" parent="1" source="tQDxqaG2RxFXSUezw98f-57" target="tQDxqaG2RxFXSUezw98f-77">
          <mxGeometry relative="1" as="geometry" />
        </mxCell>
        <mxCell id="tQDxqaG2RxFXSUezw98f-57" value="Número teste" style="ellipse;shape=doubleEllipse;margin=3;whiteSpace=wrap;html=1;align=center;" vertex="1" parent="1">
          <mxGeometry x="-290" y="640" width="120" height="80" as="geometry" />
        </mxCell>
        <mxCell id="tQDxqaG2RxFXSUezw98f-63" value="Nome" style="ellipse;whiteSpace=wrap;html=1;align=center;fontStyle=4;" vertex="1" parent="1">
          <mxGeometry x="-500" y="500" width="120" height="80" as="geometry" />
        </mxCell>
        <mxCell id="tQDxqaG2RxFXSUezw98f-64" value="Horas gastas" style="ellipse;whiteSpace=wrap;html=1;align=center;fontStyle=4;" vertex="1" parent="1">
          <mxGeometry x="-500" y="770" width="120" height="80" as="geometry" />
        </mxCell>
        <mxCell id="tQDxqaG2RxFXSUezw98f-65" value="Data efetuado" style="ellipse;whiteSpace=wrap;html=1;align=center;fontStyle=4;" vertex="1" parent="1">
          <mxGeometry x="-500" y="680" width="120" height="80" as="geometry" />
        </mxCell>
        <mxCell id="tQDxqaG2RxFXSUezw98f-66" value="Pontuação" style="ellipse;whiteSpace=wrap;html=1;align=center;" vertex="1" parent="1">
          <mxGeometry x="-500" y="590" width="120" height="80" as="geometry" />
        </mxCell>
        <mxCell id="tQDxqaG2RxFXSUezw98f-74" value="Attribute" style="ellipse;whiteSpace=wrap;html=1;align=center;fontStyle=4;" vertex="1" parent="1">
          <mxGeometry x="-160" y="920" width="120" height="80" as="geometry" />
        </mxCell>
        <mxCell id="tQDxqaG2RxFXSUezw98f-75" value="Attribute" style="ellipse;whiteSpace=wrap;html=1;align=center;" vertex="1" parent="1">
          <mxGeometry x="-300" y="920" width="120" height="80" as="geometry" />
        </mxCell>
        <mxCell id="tQDxqaG2RxFXSUezw98f-78" style="edgeStyle=orthogonalEdgeStyle;rounded=0;orthogonalLoop=1;jettySize=auto;html=1;exitX=0;exitY=1;exitDx=0;exitDy=0;entryX=0.5;entryY=0;entryDx=0;entryDy=0;" edge="1" parent="1" source="tQDxqaG2RxFXSUezw98f-77" target="tQDxqaG2RxFXSUezw98f-75">
          <mxGeometry relative="1" as="geometry" />
        </mxCell>
        <mxCell id="tQDxqaG2RxFXSUezw98f-79" style="edgeStyle=orthogonalEdgeStyle;rounded=0;orthogonalLoop=1;jettySize=auto;html=1;exitX=1;exitY=1;exitDx=0;exitDy=0;entryX=0.5;entryY=0;entryDx=0;entryDy=0;" edge="1" parent="1" source="tQDxqaG2RxFXSUezw98f-77" target="tQDxqaG2RxFXSUezw98f-74">
          <mxGeometry relative="1" as="geometry" />
        </mxCell>
        <mxCell id="tQDxqaG2RxFXSUezw98f-77" value="Empregado" style="ellipse;shape=doubleEllipse;margin=3;whiteSpace=wrap;html=1;align=center;" vertex="1" parent="1">
          <mxGeometry x="-230" y="770" width="120" height="80" as="geometry" />
        </mxCell>
        <mxCell id="tQDxqaG2RxFXSUezw98f-83" value="ANAC" style="whiteSpace=wrap;html=1;align=center;" vertex="1" parent="1">
          <mxGeometry x="-700" y="380" width="120" height="60" as="geometry" />
        </mxCell>
        <mxCell id="tQDxqaG2RxFXSUezw98f-86" style="edgeStyle=orthogonalEdgeStyle;rounded=0;orthogonalLoop=1;jettySize=auto;html=1;exitX=0;exitY=0.5;exitDx=0;exitDy=0;entryX=1;entryY=0.5;entryDx=0;entryDy=0;" edge="1" parent="1" source="tQDxqaG2RxFXSUezw98f-84" target="tQDxqaG2RxFXSUezw98f-83">
          <mxGeometry relative="1" as="geometry" />
        </mxCell>
        <mxCell id="tQDxqaG2RxFXSUezw98f-84" value="Enviar info." style="shape=rhombus;perimeter=rhombusPerimeter;whiteSpace=wrap;html=1;align=center;" vertex="1" parent="1">
          <mxGeometry x="-500" y="380" width="120" height="60" as="geometry" />
        </mxCell>
      </root>
    </mxGraphModel>
  </diagram>
</mxfile>
